<?xml version="1.0" encoding="utf-8"?>
<!-- Generator: Adobe Illustrator 22.0.1, SVG Export Plug-In . SVG Version: 6.00 Build 0)  -->
<svg version="1.1" id="Layer_1" xmlns="http://www.w3.org/2000/svg" xmlns:xlink="http://www.w3.org/1999/xlink" x="0px" y="0px"
	 viewBox="0 0 512 428" style="enable-background:new 0 0 512 428;" xml:space="preserve">
<style type="text/css">
	.st0{fill:#02A8E7;stroke:#02A8E7;}
</style>
<g id="surface1">
	<path class="st0" d="M213.5,199.6h34.1v17.1h-34.1V199.6z"/>
	<path class="st0" d="M504.8,174.1l-58-8.3c-10.6-6.5-21.5-12.3-32.8-17.4c-37.3-16.9-77.9-25.6-118.9-25.6H285
		c-48.4,0-96,12.2-138.5,35.3l-29.3,16c-34.2,0.4-67.8,9.5-97.6,26.5c-12.1,6.9-19.6,19.8-19.6,33.7v50.7c0,4.7,3.8,8.5,8.5,8.5
		h28.7c9.3,26.6,38.4,40.6,65,31.3c14.6-5.1,26.1-16.6,31.3-31.3h228c9.3,26.6,38.4,40.6,65,31.3c14.6-5.1,26.1-16.6,31.3-31.3h3.1
		c1.1,0,2.2-0.2,3.2-0.6l27.6-11.1c12.3-4.9,20.4-16.8,20.4-30.1v-69.1C512.1,178.3,509,174.7,504.8,174.1z M118.9,283.2
		c-3.8,18.5-21.8,30.4-40.3,26.6C60.1,306,48.2,288,52,269.5c3.8-18.5,21.8-30.4,40.3-26.6c15.9,3.2,27.3,17.2,27.3,33.5
		C119.6,278.7,119.4,281,118.9,283.2z M273.2,276.4H136.7c0-28.3-22.9-51.2-51.2-51.2s-51.2,22.9-51.2,51.2H17.2v-42.1
		c0-7.8,4.2-15,11-18.9C56,199.4,87.5,191,119.6,191h153.6V276.4z M273.2,174H153.1l1.6-0.9c36.5-19.8,77-31.1,118.5-32.9V174z
		 M290.3,139.8h4.8c34.4,0,68.5,6.5,100.4,19.2L380.6,174h-90.3V139.8z M443.2,283.2c-3.8,18.5-21.8,30.4-40.3,26.6
		c-18.5-3.8-30.4-21.8-26.6-40.3c3.8-18.5,21.8-30.4,40.3-26.6c15.9,3.2,27.3,17.2,27.3,33.5C443.9,278.7,443.6,281,443.2,283.2z
		 M495.1,199.6h-25.6v17.1h25.6v35c0,6.3-3.8,11.9-9.7,14.3l-24.5,9.8c0-0.8-0.1-1.6-0.2-2.3c-0.1-0.8-0.1-1.7-0.2-2.6
		c-0.1-0.9-0.3-1.7-0.4-2.6c-0.1-0.9-0.2-1.7-0.4-2.5c-0.2-0.8-0.4-1.6-0.6-2.5c-0.2-0.8-0.4-1.6-0.6-2.4c-0.3-0.8-0.6-1.6-0.9-2.3
		c-0.3-0.8-0.6-1.6-0.9-2.3c-0.3-0.8-0.7-1.5-1.1-2.2c-0.4-0.7-0.7-1.5-1.1-2.3c-0.4-0.7-0.9-1.4-1.2-2c-0.4-0.7-0.9-1.5-1.3-2.2
		c-0.5-0.7-0.9-1.3-1.4-1.9c-0.5-0.6-1-1.4-1.5-2c-0.5-0.7-1.1-1.2-1.6-1.7c-0.5-0.5-1.1-1.3-1.7-1.9c-0.6-0.6-1.2-1.1-1.8-1.6
		c-0.6-0.5-1.2-1.2-1.9-1.7c-0.6-0.6-1.3-1-2-1.5c-0.6-0.5-1.3-1-2-1.5c-0.7-0.5-1.5-0.9-2.2-1.3c-0.7-0.5-1.3-0.9-2-1.2
		c-0.7-0.4-1.6-0.8-2.3-1.1c-0.8-0.4-1.4-0.7-2.1-1c-0.7-0.3-1.7-0.6-2.6-0.9c-0.9-0.3-1.4-0.5-2.1-0.8c-1-0.3-2-0.5-3-0.8
		c-0.6-0.2-1.3-0.4-1.9-0.5c-1-0.2-2.1-0.3-3.2-0.5c-0.6-0.1-1.2-0.2-1.9-0.3c-1.7-0.2-3.4-0.3-5.2-0.3c-28.3,0-51.2,22.9-51.2,51.2
		h-68.3V191h93.9c2.3,0,4.4-0.9,6-2.5l22.1-22.1c9.3,4.4,18.3,9.4,27.1,14.8c1,0.6,2.1,1,3.3,1.2l52.4,7.5V199.6z"/>
</g>
</svg>
