<?xml version="1.0" encoding="utf-8"?>
<!-- Generator: Adobe Illustrator 21.1.0, SVG Export Plug-In . SVG Version: 6.00 Build 0)  -->
<svg version="1.1" id="Layer_1" xmlns="http://www.w3.org/2000/svg" xmlns:xlink="http://www.w3.org/1999/xlink" x="0px" y="0px"
	 viewBox="0 0 512 428" style="enable-background:new 0 0 512 428;" xml:space="preserve">
<style type="text/css">
	.st0{fill:#02A8E7;}
</style>
<g id="surface1">
	<path class="st0" d="M197.5,204.5h34v17h-34V204.5z"/>
	<path class="st0" d="M503.5,238.5H495V179c0-4.7-3.8-8.5-8.5-8.5H340.9l-5.4-37.6c-1.8-12.5-12.6-21.8-25.2-21.9H200.7
		c-9.9,0-19.4,4.3-25.8,11.9l-41.1,47.9l-83.4,6.4c-17.7,1.4-31.3,16.2-31.4,33.9v27.4h-8.5c-4.7,0-8.5,3.8-8.5,8.5v34
		c0,4.7,3.8,8.5,8.5,8.5h51.8c4.7,27.7,30.9,46.4,58.7,41.8c21.4-3.6,38.2-20.4,41.8-41.8h188.5c4.7,27.7,30.9,46.4,58.7,41.8
		c21.4-3.6,38.2-20.4,41.8-41.8h51.8c4.7,0,8.5-3.8,8.5-8.5v-34C512,242.3,508.2,238.5,503.5,238.5z M265.5,128h44.8
		c4.2,0,7.8,3.1,8.4,7.3l5,35.2h-58.2V128z M53,272.5H19v-17h34V272.5z M53,238.5H36v-27.4c0-8.9,6.9-16.2,15.7-16.9l77.8-6v16.3H87
		C68.2,204.5,53,219.7,53,238.5z M112.5,315c-18.8,0-34-15.2-34-34c0-18.8,15.2-34,34-34s34,15.2,34,34
		C146.5,299.8,131.3,315,112.5,315z M155,252.9c-1-1.5-2.1-3-3.2-4.4l-0.1-0.1c-1.7-2.1-3.6-4-5.7-5.8c-0.2-0.2-0.4-0.4-0.6-0.6
		c-2-1.7-4.1-3.2-6.3-4.5l-1.1-0.7c-2.2-1.3-4.5-2.4-6.9-3.3l-1.3-0.5c-2.5-0.9-5-1.6-7.7-2.1c-0.3-0.1-0.7-0.1-1-0.2
		c-4.8-0.9-9.7-1-14.5-0.4c-0.6,0.1-1.2,0.2-1.8,0.3c-1.4,0.2-2.7,0.5-4,0.8c-0.7,0.2-1.3,0.3-1.9,0.5c-1.3,0.4-2.6,0.8-3.9,1.3
		c-0.5,0.2-1.1,0.4-1.6,0.6c-1.7,0.7-3.4,1.5-5.1,2.4c-0.2,0.1-0.4,0.2-0.6,0.3c-1.5,0.9-2.9,1.7-4.3,2.7c-0.5,0.3-1,0.7-1.5,1.1
		c-1,0.8-2.1,1.6-3,2.5c-0.5,0.4-1,0.9-1.4,1.3c-1,1-2,1.9-2.9,3c-0.3,0.4-0.7,0.7-1,1.1c-1.2,1.4-2.4,2.9-3.4,4.5l-0.1,0.1v-14.3
		c0-9.4,7.6-17,17-17h51c9.4,0,17,7.6,17,17V252.9z M248.5,238.5H189v17h59.5v17H172v-34c-0.1-15.5-10.5-28.9-25.5-32.8v-18.2h102
		V238.5z M248.5,170.5h-92l31.3-36.6c3.2-3.8,7.9-5.9,12.9-6h47.8V170.5z M401.5,315c-18.8,0-34-15.2-34-34c0-18.8,15.2-34,34-34
		c18.8,0,34,15.2,34,34C435.5,299.8,420.3,315,401.5,315z M444,247v5.8l-0.1-0.1c-1.1-1.6-2.2-3.1-3.4-4.5c-0.3-0.4-0.7-0.8-1-1.1
		c-0.9-1-1.9-2-2.9-3c-0.5-0.4-1-0.9-1.4-1.3c-1-0.9-2-1.7-3-2.5c-0.5-0.4-1-0.8-1.5-1.1c-1.4-1-2.8-1.8-4.3-2.7
		c-0.2-0.1-0.4-0.2-0.6-0.3c-1.7-0.9-3.4-1.7-5.1-2.4c-0.5-0.2-1.1-0.4-1.6-0.6c-1.3-0.5-2.5-0.9-3.9-1.3c-0.6-0.2-1.3-0.3-1.9-0.5
		c-1.3-0.3-2.7-0.6-4-0.8c-0.6-0.1-1.2-0.2-1.8-0.3c-4.8-0.6-9.7-0.5-14.5,0.4c-0.3,0.1-0.7,0.1-1,0.2c-2.6,0.5-5.2,1.2-7.7,2.1
		l-1.3,0.5c-2.4,0.9-4.7,2.1-6.9,3.3l-1.1,0.7c-2.2,1.3-4.3,2.9-6.3,4.5c-0.2,0.2-0.4,0.4-0.6,0.6c-2,1.8-3.9,3.7-5.7,5.8l-0.1,0.1
		c-1.2,1.4-2.2,2.9-3.2,4.4v-14.4c0-9.4,7.6-17,17-17h51c9.4,0,17,7.6,17,17V247z M427,204.5h-51c-18.8,0-34,15.2-34,34v34h-76.5
		v-17H325v-17h-59.5v-51H478v51h-17C461,219.7,445.8,204.5,427,204.5z M495,272.5h-34v-17h34V272.5z"/>
</g>
</svg>
