<?xml version="1.0" encoding="utf-8"?>
<!-- Generator: Adobe Illustrator 21.1.0, SVG Export Plug-In . SVG Version: 6.00 Build 0)  -->
<svg version="1.1" id="Layer_1" xmlns="http://www.w3.org/2000/svg" xmlns:xlink="http://www.w3.org/1999/xlink" x="0px" y="0px"
	 viewBox="0 0 512 428" style="enable-background:new 0 0 512 428;" xml:space="preserve">
<style type="text/css">
	.st0{fill:#02A8E7;}
</style>
<g id="surface1">
	<path class="st0" d="M396.5,183.6c-30.6-0.1-57.8,19.8-66.8,49.1h-11l27-57.9c2.5-0.6,5-1.2,7.4-2c6.3-2.1,12.8-3.2,19.4-3.1h45
		c3.9,0,7-3.1,7-7c0-3.9-3.1-7-7-7h-9.7l1.9-3.9c0.1-0.3,0.3-0.6,0.4-0.9c1-2.9,3.6-4.8,6.6-4.8h3.9v-14h-3.9
		c-8.8,0-16.8,5.5-19.8,13.9l-0.7,1.4c-0.7-11-9.8-19.6-20.9-19.7h-2.9c-8.1,0-16.2,1.3-23.8,3.9c-6.2,2.1-12.8,3.1-19.4,3.1h-57.4
		c-10.6-13.3-26.7-21-43.7-21h-28c-6.7,0-13.2,1.9-18.8,5.6l4.2-9.8l-12.9-5.5l-8.1,18.9c-5.3-5.8-12.7-9.1-20.5-9.1h-7
		c-3.9,0-7,3.1-7,7v42.1c0,3.9,3.1,7,7,7h7c0.1,0,0.3,0,0.4,0l-7.4,17.3c-37-11.8-76.6,8.7-88.4,45.8s8.7,76.6,45.8,88.4
		c37,11.8,76.6-8.7,88.4-45.8c10.1-31.9-3.6-66.6-32.9-82.8l12.9-30.2l37.7,97.1h0.1c2.6,13.1,14.1,22.5,27.5,22.5h56.1
		c6.8,0,13.3-2.5,18.4-7h27c11.6,36.9,51,57.5,87.9,45.8c36.9-11.6,57.5-51,45.8-87.9C454.2,203.4,427.1,183.6,396.5,183.6z
		 M144.1,253.7c0,15.5-12.6,28-28,28c-15.5,0-28-12.6-28-28c0-15.5,12.6-28,28-28c1.4,0,2.8,0.2,4.2,0.4l-10.6,24.9l12.9,5.5
		l10.6-24.8C140,236.9,144,245,144.1,253.7z M172.1,253.7c0.1,31.1-25,56.3-56.1,56.4c-31.1,0.1-56.3-25-56.4-56.1
		c-0.1-31.1,25-56.3,56.1-56.4c5.3,0,10.7,0.7,15.8,2.2l-5.6,13c-22.6-5.5-45.4,8.4-50.8,31c-5.5,22.6,8.4,45.4,31,50.8
		c22.6,5.5,45.4-8.4,50.8-31c4.2-17.4-3-35.6-18.1-45.3l5.6-13C161.5,215.4,172.1,233.8,172.1,253.7z M151.4,153.4
		c-2.2,1.4-4.7,2.1-7.3,2.1v-28c6.6,0,12.3,4.6,13.7,11L151.4,153.4z M322,190.6h-31.1l-4.2-14H329L322,190.6z M329.3,148.5
		c8.1,0,16.1-1.3,23.8-3.9c6.2-2.1,12.8-3.1,19.4-3.1h2.9c3.9,0,7,3.1,7,7c0,3.9-3.1,7-7,7h-7c-0.3,0-0.7,0.1-1,0.2
		c-6.4,0.4-12.7,1.7-18.7,3.7c-6.3,2.1-12.8,3.1-19.4,3.1h-45.5c-0.6-4.8-1.8-9.5-3.6-14H329.3z M272,176.6l6.8,23
		c0,0.2,0.2,0.3,0.2,0.5l7.8,25.8c-0.9-0.1-1.7-0.3-2.6-0.3H275l-10.1-25.4c-1.6-4-4.8-7.1-8.9-8.6c0.2-0.8,0.2-1.7,0.3-2.5v-12.6
		H272z M259.9,225.7h-27l-7.6-19.1c-0.3-0.7,0.1-1.5,0.8-1.8c0.2-0.1,0.3-0.1,0.5-0.1h23.9c0.6,0,1.1,0.4,1.3,0.9L259.9,225.7z
		 M179.1,155.5v-7c0-11.6,9.4-21,21-21h28c13.8,0,26.7,6.9,34.5,18.3l5.1,16.7h-81.7C182.3,162.6,179.1,159.4,179.1,155.5z
		 M195.4,207l-11.9-30.7c0.9,0.2,1.8,0.2,2.7,0.3h56.1v12.6c0,0.8-0.6,1.4-1.4,1.4h-14.2c-8,0-14.6,6.1-15.3,14H203
		C200.3,204.6,197.6,205.5,195.4,207z M203,218.6H215l3.5,8.8c-3.5,1.3-6.7,3.3-9.4,5.8L203,218.6z M228.2,267.7
		c-7.7,0-14-6.3-14-14s6.3-14,14-14s14,6.3,14,14S235.9,267.7,228.2,267.7z M298,256.7c0,0.2-0.1,0.4-0.2,0.6
		c-0.6,2.1-1.7,4.1-3.1,5.7c0,0-0.1,0.1-0.1,0.1c-2.6,2.9-6.4,4.5-10.3,4.5h-31.9c5.2-8.6,5.2-19.4,0-28h31.9
		c3.9,0,7.6,1.7,10.3,4.5c0,0.1,0.1,0.1,0.1,0.1c1.5,1.7,2.5,3.6,3.1,5.7c0.1,0.2,0.1,0.4,0.2,0.6
		C298.4,252.7,298.4,254.7,298,256.7z M295.1,204.6h21.2l-12.9,27.6L295.1,204.6z M311.4,260.7c0.1-0.2,0.1-0.5,0.1-0.7
		c0.1-0.5,0.2-0.9,0.3-1.4c0.7-3.2,0.7-6.6,0-9.8c-0.1-0.4-0.1-0.8-0.2-1.2h0l0.5-0.9h84.3v14H311.4z M403.5,232.7H378
		c1.1-1,2.4-1.9,3.7-2.7c0.4-0.3,0.8-0.5,1.2-0.7c0.9-0.5,1.9-1,2.9-1.4c0.5-0.2,1-0.4,1.5-0.6c1-0.4,2-0.6,3.1-0.9
		c0.5-0.1,0.9-0.2,1.4-0.3c1.6-0.3,3.1-0.4,4.7-0.5c15.5,0,28,12.6,28,28c0,15.5-12.6,28-28,28c-1.6,0-3.1-0.2-4.7-0.4
		c-0.5-0.1-0.9-0.2-1.4-0.3c-1-0.2-2.1-0.5-3.1-0.9c-0.5-0.2-1-0.4-1.5-0.6c-1-0.4-1.9-0.9-2.9-1.4c-0.4-0.2-0.8-0.4-1.2-0.7
		c-1.3-0.8-2.5-1.7-3.7-2.7h25.5c3.9,0,7-3.1,7-7v-28C410.5,235.8,407.3,232.7,403.5,232.7z M396.5,309.8
		c-22.9,0.1-43.5-13.8-52-35.1h15.6c0.1,0.2,0.3,0.4,0.5,0.7c0.4,0.7,0.9,1.3,1.3,2c0.7,1,1.3,1.9,2.1,2.8c0.5,0.6,1,1.2,1.6,1.8
		c0.8,0.8,1.5,1.6,2.4,2.4c0.6,0.6,1.2,1.1,1.8,1.6c0.9,0.7,1.7,1.4,2.6,2c0.7,0.5,1.3,0.9,2,1.4c1,0.6,1.9,1.1,2.9,1.6
		c0.7,0.4,1.4,0.7,2.1,1.1c1.1,0.5,2.2,0.9,3.3,1.2c0.7,0.3,1.4,0.5,2.2,0.7c1.2,0.4,2.5,0.6,3.8,0.8c0.6,0.1,1.3,0.3,1.9,0.4
		c23,3.3,44.3-12.6,47.7-35.6c3.3-23-12.6-44.3-35.6-47.7c-4-0.6-8.1-0.6-12.1,0c-0.6,0.1-1.3,0.3-1.9,0.4c-1.3,0.2-2.6,0.5-3.8,0.8
		c-0.7,0.2-1.4,0.5-2.1,0.7c-1.1,0.4-2.2,0.8-3.3,1.3c-0.7,0.3-1.4,0.7-2.1,1.1c-1,0.5-2,1-2.9,1.6c-0.7,0.4-1.4,0.9-2,1.4
		c-0.9,0.6-1.8,1.3-2.6,2c-0.6,0.5-1.2,1.1-1.8,1.6c-0.8,0.8-1.6,1.6-2.4,2.4c-0.5,0.6-1.1,1.2-1.6,1.8c-0.7,0.9-1.4,1.9-2.1,2.8
		c-0.4,0.7-0.9,1.3-1.3,2c-0.1,0.2-0.3,0.4-0.4,0.7h-15.6c11.6-28.7,44.3-42.6,73-31c28.7,11.6,42.6,44.3,31,73
		C439.9,295.9,419.3,309.8,396.5,309.8z"/>
</g>
</svg>
