<svg style="-webkit-filter: drop-shadow(2px 2px 2px rgba(0,0,0,0.2) ); filter: drop-shadow(2px 2px 2px rgba(0,0,0,0.2) );" xmlns="http://www.w3.org/2000/svg" xmlns:xlink="http://www.w3.org/1999/xlink" viewBox="0 0 206 206">
				<style type="text/css">
	.st0{fill:#FFFFFF;}
	.st1{fill:#70247E;}
	.st2{fill:#ff7700;}
</style>
<g>
	<path class="st0" d="M36.7,103.3c0,36.6,29.7,66.3,66.3,66.3c36.6,0,66.3-29.7,66.3-66.3c0-36.6-29.7-66.3-66.3-66.3
		C66.4,37,36.7,66.6,36.7,103.3 M25.1,103.3c0-43,34.9-77.9,77.9-77.9c43,0,77.9,34.9,77.9,77.9c0,43-34.9,77.9-77.9,77.9
		C60,181.2,25.1,146.3,25.1,103.3"/>
	<path class="st1" d="M32.7,103.3C32.7,64.4,64.2,33,103,33c38.8,0,70.3,31.5,70.3,70.3c0,38.8-31.5,70.3-70.3,70.3
		C64.2,173.5,32.7,142.1,32.7,103.3"/>
	<path class="st0" d="M142.4,49.1c0-7,5.7-12.7,12.7-12.7c7,0,12.8,5.7,12.8,12.8c0,7-5.7,12.7-12.8,12.7
		C148.1,61.8,142.4,56.1,142.4,49.1"/>
	<path class="st2" d="M148.3,49.1c0-3.8,3.1-6.9,6.9-6.9c3.8,0,6.9,3.1,6.9,6.9c0,3.8-3.1,6.9-6.9,6.9
		C151.4,55.9,148.3,52.9,148.3,49.1"/>
	<path class="st0" d="M67.9,125.3c0.5-0.4,1-0.8,1.5-1c0.6-0.2,1.1-0.3,1.7-0.3c0.6,0,1.2,0.1,1.7,0.3c0.6,0.2,1.1,0.6,1.5,1
		l0.6,0.6l-1.3,1.3l-0.7-0.6c-0.3-0.3-0.6-0.5-0.9-0.6c-0.3-0.1-0.7-0.2-1-0.2c-0.4,0-0.7,0.1-1,0.2c-0.3,0.1-0.7,0.3-0.9,0.6
		c-0.3,0.3-0.5,0.6-0.6,0.9c-0.1,0.3-0.2,0.7-0.2,1c0,0.3,0.1,0.7,0.2,1c0.1,0.3,0.3,0.7,0.6,0.9c0.5,0.6,1.2,0.8,2,0.8
		c0.4,0,0.7-0.1,1.1-0.2c0.4-0.1,0.7-0.3,0.9-0.6l0.7-0.6l1.3,1.3l-0.6,0.6c-0.5,0.5-1,0.8-1.5,1c-0.6,0.2-1.2,0.3-1.7,0.3
		c-0.6,0-1.2-0.1-1.7-0.3c-0.6-0.2-1.1-0.6-1.5-1c-0.5-0.5-0.8-1-1-1.5c-0.2-0.6-0.3-1.1-0.3-1.7c0-0.6,0.1-1.2,0.3-1.7
		C67.1,126.3,67.5,125.8,67.9,125.3"/>
	<path class="st0" d="M78.4,126.6c-0.5,0.6-0.8,1.2-0.8,2c0,0.4,0.1,0.8,0.3,1.2c0.2-0.2,0.4-0.4,0.8-0.7c0.3-0.3,0.7-0.7,1.1-1.1
		c0.4-0.4,0.7-0.7,1.1-1.1c0.4-0.3,0.6-0.6,0.8-0.8c-0.5-0.3-1.1-0.3-1.6-0.3C79.4,125.9,78.8,126.2,78.4,126.6 M83,129.9l1.3,1.3
		l-0.6,0.6c-0.4,0.4-0.9,0.8-1.5,1c-0.6,0.2-1.1,0.3-1.8,0.3c-0.6,0-1.2-0.1-1.8-0.3c-0.6-0.2-1.1-0.6-1.5-1c-0.4-0.4-0.8-1-1-1.5
		c-0.2-0.6-0.3-1.1-0.3-1.7c0-0.6,0.1-1.2,0.3-1.7c0.2-0.6,0.6-1.1,1-1.5c0.5-0.4,1-0.8,1.5-1c0.6-0.2,1.1-0.3,1.7-0.3
		c0.6,0,1.2,0.1,1.7,0.3c0.6,0.2,1.1,0.6,1.5,1l0.6,0.6l-5.1,5.1c0.5,0.3,1.1,0.3,1.6,0.2c0.6-0.1,1.1-0.3,1.5-0.8L83,129.9z"/>
	<path class="st0" d="M85.2,126.8c0.2-0.6,0.6-1,1-1.5c0.4-0.4,0.9-0.7,1.5-1c0.6-0.3,1.2-0.4,1.8-0.4c0.6,0,1.2,0.1,1.8,0.4
		c0.6,0.2,1.1,0.6,1.5,1c0.4,0.4,0.8,0.9,1,1.5c0.2,0.5,0.4,1.1,0.4,1.8v4.6h-1.8v-4.6c0-0.4-0.1-0.7-0.2-1.1
		c-0.1-0.3-0.3-0.6-0.6-0.9c-0.2-0.2-0.6-0.5-0.9-0.6c-0.3-0.2-0.7-0.2-1.1-0.2c-0.4,0-0.7,0.1-1.1,0.2c-0.3,0.1-0.6,0.3-0.9,0.6
		c-0.3,0.3-0.5,0.5-0.6,0.9c-0.1,0.3-0.2,0.7-0.2,1.1v4.6h-1.8v-4.6C84.9,127.9,85,127.3,85.2,126.8"/>
	<path class="st0" d="M96,125.3c0.4-0.4,0.9-0.8,1.5-1c0.6-0.2,1.1-0.3,1.7-0.3c0.6,0,1.2,0.1,1.7,0.3c0.6,0.2,1.1,0.6,1.5,1
		l0.6,0.6l-1.3,1.3l-0.7-0.6c-0.3-0.3-0.6-0.5-0.9-0.6c-0.3-0.1-0.7-0.2-1.1-0.2c-0.4,0-0.7,0.1-1,0.2c-0.4,0.1-0.7,0.3-0.9,0.6
		c-0.3,0.3-0.5,0.6-0.6,0.9c-0.1,0.3-0.2,0.7-0.2,1c0,0.3,0.1,0.7,0.2,1c0.1,0.3,0.3,0.7,0.6,0.9c0.5,0.6,1.2,0.8,2,0.8
		c0.4,0,0.7-0.1,1.1-0.2c0.3-0.1,0.6-0.3,0.9-0.6l0.7-0.6l1.3,1.3l-0.6,0.6c-0.5,0.5-1,0.8-1.5,1c-0.6,0.2-1.1,0.3-1.7,0.3
		c-0.6,0-1.2-0.1-1.7-0.3c-0.6-0.2-1.1-0.6-1.5-1c-0.5-0.5-0.8-1-1-1.5c-0.2-0.6-0.3-1.1-0.3-1.7c0-0.6,0.1-1.2,0.3-1.7
		C95.3,126.3,95.6,125.8,96,125.3"/>
	<path class="st0" d="M105.7,128.6c0,0.4,0.1,0.7,0.2,1.1c0.2,0.3,0.4,0.6,0.6,0.9c0.3,0.3,0.5,0.4,0.9,0.6c0.3,0.1,0.7,0.2,1.1,0.2
		c0.4,0,0.7-0.1,1.1-0.2c0.4-0.1,0.7-0.3,0.9-0.6c0.3-0.3,0.5-0.6,0.6-0.9c0.1-0.3,0.2-0.7,0.2-1.1c0-0.4-0.1-0.7-0.2-1.1
		c-0.1-0.3-0.3-0.6-0.6-0.9c-0.2-0.3-0.6-0.5-0.9-0.6c-0.3-0.1-0.7-0.2-1.1-0.2c-0.4,0-0.8,0.1-1.1,0.2c-0.4,0.1-0.6,0.3-0.9,0.6
		c-0.2,0.3-0.5,0.5-0.6,0.9C105.8,127.9,105.7,128.2,105.7,128.6 M103.9,128.6c0-0.6,0.1-1.2,0.4-1.8c0.2-0.5,0.6-1,1-1.5
		c0.4-0.4,0.9-0.7,1.5-1c0.6-0.2,1.2-0.4,1.8-0.4c0.6,0,1.2,0.1,1.8,0.4c0.5,0.2,1,0.6,1.5,1c0.4,0.4,0.7,0.9,1,1.5
		c0.2,0.6,0.4,1.2,0.4,1.8c0,0.6-0.1,1.2-0.4,1.8c-0.2,0.6-0.6,1-1,1.5c-0.4,0.4-0.9,0.8-1.5,1c-0.6,0.2-1.2,0.4-1.8,0.4
		c-0.6,0-1.2-0.1-1.8-0.4c-0.6-0.3-1-0.6-1.5-1c-0.4-0.4-0.7-0.9-1-1.5C104,129.8,103.9,129.2,103.9,128.6"/>
	<path class="st0" d="M122,124v1.8h-5.5c-0.3,0-0.5,0.1-0.7,0.3c-0.2,0.2-0.3,0.4-0.3,0.7c0,0.3,0.1,0.5,0.3,0.7
		c0.2,0.2,0.4,0.3,0.7,0.3h3.7c0.4,0,0.7,0.1,1.1,0.2c0.3,0.1,0.6,0.3,0.9,0.6c0.2,0.2,0.4,0.5,0.6,0.9c0.2,0.3,0.2,0.7,0.2,1.1
		c0,0.4-0.1,0.7-0.2,1.1c-0.1,0.3-0.3,0.6-0.6,0.9c-0.3,0.3-0.6,0.5-0.9,0.6c-0.3,0.1-0.7,0.2-1.1,0.2h-5.5v-1.8h5.5
		c0.3,0,0.5-0.1,0.7-0.3c0.2-0.2,0.3-0.4,0.3-0.7c0-0.3-0.1-0.5-0.3-0.7c-0.2-0.2-0.4-0.3-0.7-0.3h-3.7c-0.4,0-0.8-0.1-1.1-0.2
		c-0.3-0.1-0.6-0.3-0.9-0.6c-0.3-0.2-0.4-0.5-0.6-0.9c-0.2-0.3-0.2-0.7-0.2-1.1c0-0.4,0.1-0.8,0.2-1.1c0.1-0.3,0.3-0.6,0.6-0.9
		c0.3-0.2,0.5-0.4,0.9-0.6c0.3-0.1,0.7-0.2,1.1-0.2H122z"/>
	<path class="st0" d="M132.7,124v4.6c0,0.6-0.1,1.2-0.4,1.8c-0.2,0.6-0.6,1.1-1,1.5c-0.4,0.4-0.9,0.7-1.5,1
		c-0.6,0.2-1.1,0.4-1.8,0.4c-0.6,0-1.2-0.1-1.8-0.4c-0.6-0.2-1.1-0.6-1.5-1c-0.4-0.4-0.7-0.9-1-1.5c-0.2-0.5-0.4-1.1-0.4-1.8V124
		h1.8v4.6c0,0.4,0.1,0.8,0.2,1.1c0.1,0.3,0.3,0.6,0.6,0.9c0.3,0.3,0.6,0.5,0.9,0.6c0.3,0.1,0.7,0.2,1.1,0.2c0.4,0,0.8-0.1,1.1-0.2
		c0.3-0.1,0.6-0.3,0.9-0.6c0.2-0.2,0.5-0.5,0.6-0.9c0.1-0.3,0.2-0.7,0.2-1.1V124H132.7z"/>
	<path class="st0" d="M137.8,131.3c0.4,0,0.7-0.1,1.1-0.2c0.3-0.1,0.6-0.3,0.9-0.6c0.3-0.3,0.4-0.5,0.6-0.9c0.1-0.3,0.2-0.7,0.2-1.1
		v-2.8h-2.8c-0.4,0-0.7,0.1-1.1,0.2c-0.3,0.1-0.6,0.3-0.9,0.6c-0.2,0.3-0.4,0.6-0.6,0.9c-0.1,0.3-0.2,0.7-0.2,1.1
		c0,0.4,0.1,0.7,0.2,1.1c0.1,0.3,0.3,0.6,0.6,0.9c0.3,0.3,0.6,0.5,0.9,0.6C137.1,131.3,137.5,131.3,137.8,131.3 M142.4,120.3v8.3
		c0,0.6-0.1,1.2-0.4,1.8c-0.2,0.6-0.6,1.1-1,1.5c-0.4,0.4-0.9,0.7-1.5,1c-0.6,0.2-1.2,0.4-1.8,0.4c-0.6,0-1.2-0.1-1.8-0.4
		c-0.6-0.3-1.1-0.6-1.5-1c-0.4-0.4-0.8-0.9-1-1.5c-0.3-0.6-0.4-1.1-0.4-1.8c0-0.6,0.1-1.2,0.4-1.8c0.2-0.6,0.6-1,1-1.5
		c0.4-0.4,0.9-0.7,1.5-1c0.6-0.2,1.2-0.4,1.8-0.4h2.8v-3.7H142.4z"/>
	<path class="st0" d="M146.8,91.4c1-2.2,3.4-3.8,5.8-3.9H166v5.8c-4.4,0-8.7,0-13.1,0c-0.5,0-1,0.5-1,1c-0.1,0.6,0.4,1.2,1,1.2h6.8
		c0.8,0,1.7,0,2.5,0.1c2,0.3,3.9,1.6,4.9,3.4c0.9,1.6,1.2,3.5,0.7,5.3c-0.6,2.3-2.4,4.2-4.7,4.8c-0.9,0.3-1.8,0.3-2.6,0.3H148
		c0-2,0-3.9,0-5.9c4.4,0,8.8,0,13.1,0c0.7,0,1.1-0.7,1-1.4c-0.1-0.5-0.6-0.9-1.1-0.8h-6.4c-1.2,0-2.4,0.1-3.5-0.2
		c-1.8-0.5-3.4-1.7-4.3-3.4C145.8,95.8,145.8,93.4,146.8,91.4"/>
	<path class="st0" d="M45.1,89.3c1.9-1.3,4.3-1.9,6.6-1.7c2.8,0.1,5.5,1.5,7.4,3.5c1.6,1.7,2.6,4,2.8,6.3c0.2,2.1-0.1,4.2-1.1,6.1
		c-1.4,2.8-4.1,5-7.2,5.8c-1,0.3-2.1,0.3-3.2,0.3h-4.6v8c-2,0-3.9,0-5.9,0V99.6c0-1.1,0-2.2,0.2-3.3C40.8,93.5,42.6,90.9,45.1,89.3
		 M47.3,95c-0.9,0.9-1.4,2.2-1.4,3.5v5.2h5.2c1.4,0,2.7-0.6,3.6-1.5c1.1-1.1,1.6-2.6,1.4-4.1c-0.1-1.2-0.7-2.3-1.5-3.1
		c-1-1-2.3-1.5-3.7-1.5C49.6,93.4,48.3,94,47.3,95"/>
	<path class="st0" d="M62.9,88.5h5.8v10.3c0,0.5,0,0.9,0.1,1.4c0.2,1.6,1.3,3.1,2.7,3.9c1.5,0.8,3.3,0.7,4.8,0
		c1.6-0.8,2.6-2.6,2.7-4.3c0-3.7,0-7.4,0-11.1h5.9c0,3.7,0,7.3,0,11c0,2.1-0.6,4.2-1.8,5.9c-1.4,2.1-3.5,3.7-5.9,4.5
		c-2.6,0.8-5.5,0.7-7.9-0.5c-3.7-1.7-6.3-5.5-6.4-9.6V88.5z"/>
	<path class="st0" d="M91.4,88.9c2.3-1.3,5.2-1.6,7.8-1c4,0.9,7.3,4.2,8.2,8.2c0.4,1.4,0.3,3,0.3,4.4v9h-5.8c0-3.7,0-7.3,0-11
		c0-1.3-0.5-2.6-1.4-3.5c-1-1.1-2.6-1.7-4.1-1.6c-1.3,0.1-2.5,0.7-3.4,1.6c-0.9,0.9-1.4,2.2-1.4,3.5c0,3.7,0,7.3,0,11h-5.8v-11
		C85.6,94.6,87.9,90.7,91.4,88.9"/>
	<path class="st0" d="M132.7,88.7c2-0.3,4.2,0,6,0.9c2.1,1,3.9,2.6,5.1,4.7c1.1,1.9,1.5,4.1,1.3,6.3c-0.2,2.4-1.2,4.6-2.8,6.4
		c-1.7,1.8-3.9,3.1-6.4,3.5c-2.1,0.3-4.3,0.1-6.3-0.8c-3.9-1.7-6.6-5.8-6.5-10.1c0-2.1,0.6-4.3,1.8-6
		C126.8,90.9,129.6,89.1,132.7,88.7 M133.1,94.6c-1.5,0.3-2.8,1.3-3.5,2.7c-0.5,1-0.6,2.1-0.4,3.2c0.3,1.5,1.3,2.9,2.6,3.6
		c1.3,0.7,2.9,0.8,4.2,0.3c1.3-0.5,2.3-1.5,2.9-2.7c0.4-0.9,0.6-2,0.4-3c-0.3-1.6-1.4-3-2.8-3.7C135.4,94.5,134.2,94.4,133.1,94.6"
		/>
	<path class="st0" d="M108.5,79.5h5.9v8.1h8.1v5.5h-8.1c0,1-0.2,6,0.3,7.2c0.7,1.9,2.6,3.3,4.6,3.3h3.1v5.9c-1.2,0-2.4,0-3.6,0
		c-2.3-0.1-4.5-1-6.2-2.5c-2-1.6-3.4-3.9-3.9-6.5c-0.2-1-0.2-2-0.2-3V79.5z"/>
</g>
</svg>
